<?xml version="1.0" encoding="UTF-8"?>
<svg width="18px" height="18px" viewBox="0 0 18 18" version="1.1" xmlns="http://www.w3.org/2000/svg" xmlns:xlink="http://www.w3.org/1999/xlink">
    <!-- Generator: sketchtool 52.5 (67469) - http://www.bohemiancoding.com/sketch -->
    <title>1985D63C-8AB8-4417-A4E1-27FCD2201C2C</title>
    <desc>Created with sketchtool.</desc>
    <g id="Page-1" stroke="none" stroke-width="1" fill="none" fill-rule="evenodd">
        <g id="Uproar" transform="translate(-50.000000, -217.000000)" fill="#6F6EFF">
            <g id="leftbar">
                <g id="games" transform="translate(0.000000, 102.000000)">
                    <g id="Action" transform="translate(0.000000, 104.000000)">
                        <path d="M53.9657392,26.1067282 C53.8450954,25.8848176 53.6927554,25.6783503 53.5090294,25.4946446 C53.3163715,25.3022559 53.0980341,25.1452812 52.8639417,25.0214256 C52.5841969,24.8733819 52.8053255,24.5562694 52.8053255,24.5562694 C53.0916452,24.1206971 53.3527197,23.6830781 53.568576,23.301836 L52.1194235,21.8540217 L50.7125739,21.8540217 C50.4420092,21.8540217 50.2226793,21.63453 50.2226793,21.3639331 C50.2226793,21.0934602 50.4420092,20.8739685 50.7125739,20.8739685 L52.3220059,20.8739685 C52.452264,20.8739685 52.5767535,20.9255698 52.6686165,21.0173607 L57.9644771,26.3071795 C58.0564641,26.3991564 58.1080711,26.5239423 58.1080711,26.6538139 L58.1080711,28.2708831 C58.1080711,28.541604 57.8886793,28.7606616 57.6180525,28.7606616 C57.3471777,28.7606616 57.1277858,28.541666 57.1277858,28.2708831 L57.1277858,26.8569322 L55.6844019,25.415568 C55.2948061,25.6454792 54.8419421,25.9273639 54.3932339,26.237344 C54.3931719,26.23722 54.1361292,26.4201815 53.9657392,26.1067282 Z M51.6495639,25.7052673 C52.0900844,25.7052673 52.5044293,25.8766929 52.8159322,26.1880375 C53.1274352,26.4990099 53.2991278,26.9127509 53.2991278,27.3526647 C53.2991278,27.7926405 53.1274972,28.2061333 52.8159322,28.5171678 C52.5043672,28.8282023 52.0900844,29 51.6495639,29 C51.2087953,28.999876 50.7945124,28.8282643 50.4826993,28.5171678 C50.1714445,28.2061954 50,27.7928265 50,27.3526647 C50,26.9128129 50.1713825,26.499072 50.4826993,26.1880375 C50.7945745,25.8766929 51.2087953,25.7052673 51.6495639,25.7052673 Z M56.262872,22.307518 C56.0456511,22.5245289 55.6902325,22.5245289 55.4730116,22.3075801 L54.9265478,21.7617347 C54.7093269,21.5447858 54.7093269,21.1897166 54.9265478,20.9727677 L64.2549514,11.655192 C64.4721723,11.4382431 64.9001012,11.2379778 65.2058356,11.2101925 L67.4922996,11.0022987 C67.798096,10.9745133 68.0254895,11.2018817 67.9977011,11.5076444 L67.7901565,13.7894529 C67.7623681,14.0952156 67.5618947,14.5228492 67.3446738,14.7398601 L58.0157119,24.0585522 C57.798491,24.2755011 57.4430725,24.2755011 57.2258516,24.0585522 L56.6786435,23.5119626 C56.4614226,23.2950137 56.4614226,22.9399445 56.6786435,22.7229336 L64.4891679,14.9205268 C64.6041672,14.8059123 64.6042912,14.6196017 64.4893539,14.5048632 C64.3747268,14.3899386 64.1883337,14.3899386 64.0732103,14.5047391 L56.262872,22.307518 Z" id="Combined-Shape" transform="translate(59.000000, 20.000000) scale(1, -1) translate(-59.000000, -20.000000) "></path>
                    </g>
                </g>
            </g>
        </g>
    </g>
</svg>