<?xml version="1.0" encoding="UTF-8"?>
<svg width="12px" height="18px" viewBox="0 0 12 18" version="1.1" xmlns="http://www.w3.org/2000/svg" xmlns:xlink="http://www.w3.org/1999/xlink">
    <!-- Generator: sketchtool 52.5 (67469) - http://www.bohemiancoding.com/sketch -->
    <title>81E8BDA2-CBF4-4FCC-989A-E16BC0DFE143</title>
    <desc>Created with sketchtool.</desc>
    <g id="Page-1" stroke="none" stroke-width="1" fill="none" fill-rule="evenodd" opacity="0.5">
        <g id="Uproar" transform="translate(-53.000000, -257.000000)" fill="#FFFFFF" fill-rule="nonzero">
            <g id="leftbar">
                <g id="games" transform="translate(0.000000, 102.000000)">
                    <g id="Adventure" transform="translate(0.000000, 144.000000)">
                        <path d="M64.3562631,20.8338621 L63.3401315,19.9037341 C63.3659473,19.4395673 63.3795263,19.062617 63.3795263,18.8526888 C63.3795263,15.7203817 61.8766842,12.8223424 59.3568421,11.1005565 C59.2606052,11.034715 59.1466052,11 59.0255789,11 C58.9062894,11 58.7887368,11.0357291 58.6941579,11.1004785 C56.1743158,12.8222644 54.6702105,15.7203037 54.6702105,18.8526888 C54.6702105,19.062539 54.6808684,19.4395673 54.7066842,19.9036561 L53.6701053,20.8338621 C53.3025263,21.1685303 53,21.8175057 53,22.3113168 L53,25.930492 C53,26.4072967 53.3170526,26.5890628 53.6037895,26.5890628 C53.6038684,26.5890628 53.6045789,26.5890628 53.6045789,26.5890628 C53.7485,26.5890628 53.8980263,26.55544 54.0483421,26.4577699 L56.0116052,25.1894633 C56.0808421,25.1444508 56.1473947,25.0938215 56.2107895,25.0331288 L58.4171315,28.6140784 C58.568,28.8587217 58.79,29 59.0262894,29 C59.2626579,29 59.4846579,28.8602039 59.6354473,28.6155606 L61.8417894,25.0368733 C61.9051842,25.097566 61.9715789,25.1522519 62.0408157,25.1972644 L64.0039999,26.4735282 C64.1542368,26.5711983 64.2917631,26.6207354 64.4356841,26.6207354 C64.7224999,26.6207354 64.9999999,26.4072967 64.9999999,25.930414 L64.9999999,22.3112388 C65.0001578,21.8175057 64.723921,21.1685303 64.3562631,20.8338621 Z M59.0264473,19.0235334 C58.2001052,19.0235334 57.5301579,18.3616081 57.5301579,17.5449865 C57.5301579,16.7284429 58.2000263,16.0664396 59.0264473,16.0664396 C59.8528684,16.0664396 60.5227368,16.7283649 60.5227368,17.5449865 C60.5227368,18.3616081 59.8527894,19.0235334 59.0264473,19.0235334 Z" id="Shape"></path>
                    </g>
                </g>
            </g>
        </g>
    </g>
</svg>