<?xml version="1.0" encoding="UTF-8"?>
<svg width="14px" height="18px" viewBox="0 0 14 18" version="1.1" xmlns="http://www.w3.org/2000/svg" xmlns:xlink="http://www.w3.org/1999/xlink">
    <!-- Generator: sketchtool 52.5 (67469) - http://www.bohemiancoding.com/sketch -->
    <title>9289DB80-77A6-4870-926A-C47BC1EFF1B4</title>
    <desc>Created with sketchtool.</desc>
    <g id="Page-1" stroke="none" stroke-width="1" fill="none" fill-rule="evenodd" opacity="0.5">
        <g id="Uproar" transform="translate(-52.000000, -297.000000)" fill="#FFFFFF" fill-rule="nonzero">
            <g id="leftbar">
                <g id="games" transform="translate(0.000000, 102.000000)">
                    <g id="Casual" transform="translate(0.000000, 184.000000)">
                        <path d="M66,15.1467779 L66,15.5238449 C65.9999052,16.6647758 65.9995262,21.1481762 65.998863,28.9740463 C65.8975982,28.9841746 62.1633776,29.0068929 60.3751473,28.9895904 C60.1897439,28.987832 59.9386071,28.8919651 59.8351393,28.7536861 C59.619463,28.4655228 59.8170182,28.2453736 60.0662363,28.0536398 C61.0930972,27.2634941 61.020755,25.7590241 59.9318561,25.1121512 C59.1120729,24.6250799 58.0889073,24.8341161 57.5339049,25.6021766 C56.9867906,26.3594054 57.1305511,27.4041645 57.8649166,28.0055305 C57.9558773,28.0800858 58.0620454,28.1418402 58.1361642,28.2300405 C58.3606523,28.4969626 58.2255615,28.8927388 57.8850274,28.9836119 C57.8289587,28.998523 57.7677023,28.998945 57.7087911,28.998945 C55.9322862,28.9998593 54.1557813,28.9998593 52.3792764,29 L52.0025002,29 L52.0025002,28.6566235 C52.0025002,26.9334813 52.0047031,25.2103391 52.0002972,23.4871969 C51.9995866,23.213593 52.0238902,22.9609489 52.3233498,22.850382 C52.6308396,22.736861 52.800467,22.9294387 52.9703077,23.1446645 C53.6440564,23.9987449 54.8454481,24.0950338 55.6333951,23.3657984 C56.3882266,22.6673698 56.379557,21.4566899 55.6147055,20.7681082 C54.8259768,20.058004 53.6405032,20.1564029 52.9782668,20.9953613 C52.8089946,21.2098133 52.6407173,21.4073849 52.3336539,21.3025854 C52.0329152,21.1999664 51.9992313,20.9498544 52.000013,20.673226 C52.0049874,18.9384082 52.0025002,17.20352 52.0025002,15.4686318 L52.0025002,15.1469186 L52.4032957,15.1469186 C54.1324726,15.1469186 55.8615785,15.1443865 57.5906843,15.149521 C57.8709569,15.150365 58.121241,15.1158304 58.2226479,14.8158508 C58.3194358,14.5295161 58.1433416,14.3633844 57.932995,14.2023871 C57.0591328,13.5334993 56.9516144,12.3617851 57.6833505,11.5714284 C58.3836768,10.8150436 59.6061742,10.8086431 60.3074953,11.557713 C61.0434952,12.3439903 60.9456414,13.5217533 60.079454,14.1931732 C59.8720921,14.3539595 59.6838461,14.5150271 59.7745936,14.8023464 C59.8752189,15.1207539 60.1404972,15.1507167 60.4328505,15.149732 C62.1619564,15.1439645 63.8911333,15.1468482 65.6202391,15.1467779 L66,15.1467779 Z" id="Fill-1" transform="translate(59.000000, 20.000000) scale(-1, 1) translate(-59.000000, -20.000000) "></path>
                    </g>
                </g>
            </g>
        </g>
    </g>
</svg>