<?xml version="1.0" encoding="UTF-8"?>
<svg width="16px" height="18px" viewBox="0 0 16 18" version="1.1" xmlns="http://www.w3.org/2000/svg" xmlns:xlink="http://www.w3.org/1999/xlink">
    <!-- Generator: sketchtool 52.5 (67469) - http://www.bohemiancoding.com/sketch -->
    <title>E21A282C-8809-4F6E-896F-65B2568D6017</title>
    <desc>Created with sketchtool.</desc>
    <g id="Page-1" stroke="none" stroke-width="1" fill="none" fill-rule="evenodd" opacity="0.5">
        <g id="Uproar" transform="translate(-51.000000, -377.000000)" fill="#FFFFFF" fill-rule="nonzero">
            <g id="leftbar">
                <g id="games" transform="translate(0.000000, 102.000000)">
                    <g id="Intellectual" transform="translate(0.000000, 264.000000)">
                        <path d="M58.4335785,24.0787633 C57.6096338,23.6073082 56.8351158,23.1104453 56.0126603,22.7115434 C55.4120933,22.420201 55.1945305,22.0462835 55.2437445,21.3806706 C55.3102614,20.4816593 55.2602673,19.5741081 55.2602673,18.6230814 C55.3752891,18.6712856 55.4596054,18.696764 55.5339937,18.739322 C56.4345251,19.2542526 57.3368293,19.7664308 58.2290638,20.2954063 C58.337987,20.3599138 58.4580437,20.5163127 58.4598875,20.6319886 C58.4772613,21.7135123 58.4703827,22.795389 58.468468,23.8772657 C58.4683971,23.9317512 58.4501723,23.9862367 58.4335785,24.0787633 Z M59.5320864,24.097925 C59.5320864,22.8656485 59.5295335,21.7159473 59.5379722,20.5663871 C59.5385395,20.4911519 59.605411,20.3852862 59.6724243,20.3463277 C60.6674835,19.7666072 61.6677194,19.1957795 62.7051848,18.6009555 C62.7189421,18.733217 62.7358904,18.8207327 62.7360322,18.9081777 C62.737876,19.9306284 62.7419181,20.9531497 62.7308556,21.9755299 C62.7295791,22.0972754 62.6784504,22.2778823 62.5900212,22.3303917 C61.5990041,22.9186519 60.5962863,23.4871506 59.5320864,24.097925 Z M59.5607568,28.9483093 C59.5489142,28.8521833 59.5312567,28.7745485 59.531044,28.6969136 C59.5282783,27.6753804 59.5344478,26.6536354 59.5221089,25.6321728 C59.5193432,25.4018797 59.5965681,25.2764641 59.7992391,25.1634701 C60.6835312,24.6705595 61.5567609,24.1579579 62.4349545,23.6540373 C62.5137395,23.6088679 62.5989067,23.5747086 62.7371172,23.508719 L62.7371172,24.8364863 C62.7371172,25.5176261 62.7461942,26.1989071 62.7288912,26.8795528 C62.7257001,27.0054624 62.6499644,27.1846577 62.55026,27.2443659 C61.6114353,27.8072185 60.6602716,28.3496742 59.7118026,28.8965763 C59.6740057,28.918314 59.627841,28.9257952 59.5607568,28.9483093 Z M58.4651918,29 C57.394326,28.3817444 56.3944447,27.8080936 55.4011584,27.2234328 C55.3289684,27.1809453 55.264437,27.0584234 55.2637988,26.9726017 C55.2547219,25.8349691 55.2577712,24.6971953 55.2577712,23.5540577 C55.3152112,23.5540577 55.355561,23.5416362 55.3805226,23.5558222 C56.3524639,24.1105583 57.3244762,24.6652945 58.291099,25.2289939 C58.3686075,25.2742339 58.4570367,25.3835578 58.4578168,25.463804 C58.4685956,26.6124466 58.4651918,27.7611598 58.4651918,29 Z M62.1998619,17.6665145 C61.1506247,18.2689607 60.1620896,18.8407766 59.166605,19.4005943 C59.0834943,19.4473163 58.9306046,19.4553621 58.8504014,19.4103339 C57.8444215,18.8455758 56.8458876,18.2677609 55.8008344,17.6676437 C56.2707076,17.3960629 56.7054078,17.1441026 57.1408171,16.8933421 C57.6818167,16.5817441 58.2203343,16.2658409 58.7672907,15.9650413 C58.8675625,15.9099205 59.035344,15.8600225 59.1169655,15.9054742 C60.1340078,16.4725613 61.1409096,17.0576456 62.1998619,17.6665145 Z M51.0042407,16.1350474 C52.0645404,16.7443397 53.0547774,17.3109328 54.0403342,17.8852188 C54.1092621,17.9253772 54.1880471,18.0227031 54.1886144,18.093986 C54.1978332,19.2526505 54.1951385,20.4113857 54.1951385,21.6289115 C54.0351575,21.5451365 53.9233268,21.4912156 53.8158218,21.4296723 C52.958264,20.9381027 52.0995717,20.4482975 51.2469069,19.9483292 C51.1481243,19.8903854 51.0158705,19.7743566 51.0145941,19.683665 C50.9988513,18.5256356 51.0042407,17.3671828 51.0042407,16.1350474 Z M63.8015086,21.6470922 C63.8015086,20.4138982 63.7989557,19.2647616 63.8072526,18.1156955 C63.8078199,18.041166 63.8732022,17.9362179 63.9391518,17.8976828 C64.9324381,17.3171154 65.9308302,16.7453701 66.9945337,16.1332548 L66.9945337,16.9859675 C66.9944628,17.8428443 66.9979376,18.6997211 66.9899953,19.5565274 C66.9890025,19.6609109 66.9588642,19.8187214 66.8878797,19.8606442 C65.8884948,20.4517275 64.8796075,21.0269311 63.8015086,21.6470922 Z M51.543744,15.219514 C52.5985833,14.6129742 53.5869057,14.0403115 54.5823904,13.4801409 C54.6640119,13.4341952 54.816476,13.4330659 54.8978139,13.4787293 C55.8935113,14.0379824 56.8820464,14.6097982 57.9014998,15.1950943 C57.8210129,15.257061 57.7661258,15.310135 57.7018782,15.3472586 C56.7938299,15.8713643 55.8862781,16.3965286 54.9729823,16.9115298 C54.8725687,16.9681327 54.7039362,17.0236769 54.6236621,16.978931 C53.6071161,16.412479 52.6009944,15.8276064 51.543744,15.219514 Z M66.4541865,15.2194081 C65.4021838,15.8240423 64.4044299,16.4002339 63.4017121,16.9677445 C63.3334932,17.0063502 63.2080471,17.0147489 63.1429485,16.9779782 C62.1296645,16.4051037 61.1219118,15.8224896 60.0644487,15.214256 C60.964271,14.6967845 61.8362951,14.2344338 62.6638564,13.7034822 C63.1024568,13.42195 63.4274537,13.4365595 63.8593882,13.712516 C64.6817729,14.2379627 65.5465638,14.6976315 66.4541865,15.2194081 Z M55.8537217,12.743831 C56.5589571,12.3375891 57.2468896,11.9372051 57.9390769,11.5441611 C58.2955594,11.3417459 58.6584242,11.0024817 59.0202961,11.0000115 C59.3669925,10.9976825 59.7170219,11.34958 60.064002,11.5484663 C60.7277529,11.9289475 61.3905111,12.3112638 62.0533402,12.6933683 C62.073267,12.7048724 62.0895062,12.722799 62.1370892,12.7624633 C62.0619917,12.8185016 61.9981695,12.8766571 61.9250576,12.9189328 C61.0282137,13.4369689 60.1322208,13.9568399 59.228782,14.4634425 C59.1251773,14.521598 58.9453405,14.5602037 58.8557057,14.5103057 C57.8789422,13.9660855 56.9130286,13.4026684 55.9449165,12.8430624 C55.918324,12.8276766 55.901092,12.7963403 55.8537217,12.743831 Z M51.0011276,21.0342993 C51.5633304,21.3578954 52.0496556,21.6382277 52.5364063,21.9177837 C53.0160657,22.1932462 53.5010436,22.459816 53.9719097,22.7493939 C54.0723233,22.8111489 54.1838703,22.9540675 54.1852886,23.0610625 C54.2001804,24.1641122 54.1937273,25.2674444 54.1915999,26.3706353 C54.191529,26.4027479 54.1740133,26.4348605 54.1536611,26.5045201 C53.8988687,26.3618132 53.654926,26.2278578 53.4135362,26.0895972 C52.688445,25.6745332 51.9614391,25.2627863 51.2433684,24.836077 C51.1395509,24.7743926 51.0129702,24.6387434 51.011481,24.5356302 C50.9949581,23.399762 51.0011276,22.2634704 51.0011276,21.0342993 Z M66.994555,21.0357461 C66.994555,21.786475 66.9942714,22.4515232 66.9946259,23.1165008 C66.9949096,23.5626188 67.0102978,24.0093013 66.9876764,24.4541489 C66.9812942,24.5788587 66.8959142,24.7506434 66.7933023,24.811622 C65.8628454,25.3645232 64.9206169,25.8979451 63.9811539,26.4358133 C63.9426479,26.4578333 63.8969795,26.467573 63.8020972,26.5022263 L63.8020972,25.4307951 C63.8021681,24.667927 63.7957859,23.9048472 63.8089049,23.1422614 C63.8109614,23.0223509 63.8677631,22.8470373 63.9571851,22.7938928 C64.9368561,22.2118433 65.928015,21.6489202 66.994555,21.0357461 Z" id="Combined-Shape"></path>
                    </g>
                </g>
            </g>
        </g>
    </g>
</svg>