<?xml version="1.0" encoding="UTF-8"?>
<svg width="7px" height="12px" viewBox="0 0 7 12" version="1.1" xmlns="http://www.w3.org/2000/svg" xmlns:xlink="http://www.w3.org/1999/xlink">
    <!-- Generator: sketchtool 52.5 (67469) - http://www.bohemiancoding.com/sketch -->
    <title>15C80AA2-2EE7-45BF-BBD5-2F0D649A93BB</title>
    <desc>Created with sketchtool.</desc>
    <g id="Page-1" stroke="none" stroke-width="1" fill="none" fill-rule="evenodd">
        <g id="Uproar" transform="translate(-426.000000, -436.000000)" fill="#FFFFFF" fill-rule="nonzero">
            <g id="weekly_quests-" transform="translate(335.000000, 112.000000)">
                <g id="item-1" transform="translate(0.000000, 66.000000)">
                    <g id="energy" transform="translate(85.000000, 255.000000)">
                        <path d="M12.9807217,7.1156096 C12.9469684,7.04520321 12.8742743,7.00001563 12.7941975,7.00001563 L10.3544959,7.00001563 L12.7622777,3.30700841 C12.8024247,3.24541454 12.8048857,3.16741439 12.7686713,3.10361739 C12.7324329,3.03960945 12.6632372,3 12.5882994,3 L9.29419565,3 C9.2161696,3 9.14492317,3.04279696 9.10993932,3.11060178 L6.0217095,9.1106135 C5.98978975,9.17241831 5.99328814,9.2460122 6.03075705,9.3050045 C6.06844311,9.3639968 6.1345264,9.39999687 6.20596584,9.39999687 L8.32304388,9.39999687 L6.01613621,14.7224057 C5.97680954,14.8134137 6.01181752,14.9189998 6.09848097,14.9706093 C6.1318242,14.990414 6.16888295,15 6.2057487,15 C6.26483522,15 6.32310143,14.9753906 6.36346556,14.9290077 L12.9516972,7.32898502 C13.0033527,7.26940678 13.0144751,7.18620349 12.9807217,7.1156096 Z" id="icon-1"></path>
                    </g>
                </g>
            </g>
        </g>
    </g>
</svg>