<!-- Generated by IcoMoon.io -->
<svg version="1.1" xmlns="http://www.w3.org/2000/svg" width="32" height="32" viewBox="0 0 32 32">
<title>al</title>
<path fill="#f0f0f0" d="M16 0c8.837 0 16 7.163 16 16s-7.163 16-16 16c0-0.696-2.087-16-2.087-16l2.087-16z"></path>
<path fill="#496e2d" d="M16 32c-8.836 0-16-7.163-16-16s7.163-16 16-16z"></path>
<path fill="#d80027" d="M19.438 12.931l-1.313 1.809-2.126-0.69 1.315 1.808-1.313 1.809 2.125-0.692 1.315 1.807-0.001-2.235 2.125-0.692-2.126-0.689z"></path>
<path fill="#d80027" d="M17.327 20.522c-2.497 0-4.522-2.024-4.522-4.522s2.024-4.522 4.522-4.522c0.779 0 1.511 0.197 2.151 0.543-1.003-0.981-2.376-1.587-3.89-1.587-3.074 0-5.565 2.492-5.565 5.565s2.492 5.565 5.565 5.565c1.514 0 2.887-0.606 3.89-1.587-0.64 0.347-1.372 0.544-2.151 0.544z"></path>
</svg>
