<!-- Generated by IcoMoon.io -->
<svg version="1.1" xmlns="http://www.w3.org/2000/svg" width="32" height="32" viewBox="0 0 32 32">
<title>alb</title>
<path fill="#d80027" d="M32 16c0 8.837-7.163 16-16 16s-16-7.163-16-16c0-8.837 7.163-16 16-16s16 7.163 16 16z"></path>
<path fill="#000" d="M25.044 11.876h-5.795c0.358-0.375 0.578-0.882 0.578-1.441 0-1.153-0.934-2.087-2.087-2.087-0.726 0-1.365 0.371-1.739 0.934-0.374-0.563-1.013-0.934-1.739-0.934-1.153 0-2.087 0.934-2.087 2.087 0 0.559 0.22 1.066 0.578 1.441h-5.795c0 1.537 1.339 2.783 2.875 2.783h-0.093c0 1.537 1.246 2.783 2.783 2.783 0 0.498 0.131 0.964 0.36 1.368l-2.308 2.308 1.771 1.771 2.512-2.512c0.098 0.036 0.2 0.065 0.305 0.085l-1.518 3.427 2.356 2.547 2.356-2.547-1.518-3.427c0.105-0.020 0.207-0.049 0.305-0.085l2.512 2.512 1.771-1.771-2.308-2.308c0.229-0.404 0.36-0.871 0.36-1.368 1.537 0 2.783-1.246 2.783-2.783h-0.093c1.537 0 2.875-1.246 2.875-2.782z"></path>
</svg>
