<!-- Generated by IcoMoon.io -->
<svg version="1.1" xmlns="http://www.w3.org/2000/svg" width="32" height="32" viewBox="0 0 32 32">
<title>bur</title>
<path fill="#ffda44" d="M32 16c0 8.837-7.163 16-16 16s-16-7.163-16-16c0-8.837 7.163-16 16-16s16 7.163 16 16z"></path>
<path fill="#338af3" d="M9.739 10.435h21.266c-2.261-6.093-8.125-10.435-15.005-10.435-4.418 0-8.418 1.791-11.313 4.687l5.052 5.748z"></path>
<path fill="#338af3" d="M9.739 21.565h21.266c-2.261 6.093-8.125 10.435-15.005 10.435-4.418 0-8.418-1.791-11.313-4.687l5.052-5.748z"></path>
<path fill="#000" d="M4.686 4.686c-6.248 6.248-6.248 16.379 0 22.628 2.582-2.582 5.065-5.065 11.314-11.314l-11.314-11.314z"></path>
</svg>
