<!-- Generated by IcoMoon.io -->
<svg version="1.1" xmlns="http://www.w3.org/2000/svg" width="32" height="32" viewBox="0 0 32 32">
<title>grk</title>
<path fill="#f0f0f0" d="M32 16c0 8.837-7.163 16-16 16s-16-7.163-16-16c0-8.837 7.163-16 16-16s16 7.163 16 16z"></path>
<path fill="#338af3" d="M16 11.826h15.449c-0.401-1.488-1.011-2.891-1.797-4.174h-13.652v4.174z"></path>
<path fill="#338af3" d="M6.040 28.522h19.92c1.46-1.163 2.712-2.576 3.692-4.174h-27.303c0.979 1.598 2.232 3.011 3.692 4.174z"></path>
<path fill="#338af3" d="M5.565 3.871c-1.258 1.083-2.345 2.359-3.217 3.781h3.217v-3.781z"></path>
<path fill="#338af3" d="M16 16c0-1.63 0-2.994 0-4.174h-6.261v4.174h-4.174v-4.174h-5.014c-0.359 1.331-0.551 2.73-0.551 4.174s0.193 2.843 0.551 4.174h30.898c0.359-1.331 0.551-2.73 0.551-4.174h-16z"></path>
<path fill="#338af3" d="M16 0c-2.222 0-4.338 0.453-6.261 1.272v6.38h6.261c0-1.457 0-2.696 0-4.174h9.96c-2.733-2.177-6.194-3.478-9.96-3.478z"></path>
</svg>
