<!-- Generated by IcoMoon.io -->
<svg version="1.1" xmlns="http://www.w3.org/2000/svg" width="32" height="32" viewBox="0 0 32 32">
<title>ind</title>
<path fill="#f0f0f0" d="M32 16c0 8.837-7.163 16-16 16s-16-7.163-16-16c0-8.837 7.163-16 16-16s16 7.163 16 16z"></path>
<path fill="#ff9811" d="M16 0c-6.343 0-11.824 3.692-14.412 9.043h28.825c-2.588-5.352-8.069-9.043-14.412-9.043z"></path>
<path fill="#6da544" d="M16 32c6.343 0 11.824-3.692 14.412-9.044h-28.825c2.588 5.352 8.069 9.044 14.412 9.044z"></path>
<path fill="#0052b4" d="M21.565 16c0 3.074-2.492 5.565-5.565 5.565s-5.565-2.492-5.565-5.565c0-3.074 2.492-5.565 5.565-5.565s5.565 2.492 5.565 5.565z"></path>
<path fill="#f0f0f0" d="M19.478 16c0 1.921-1.557 3.478-3.478 3.478s-3.478-1.557-3.478-3.478c0-1.921 1.557-3.478 3.478-3.478s3.478 1.557 3.478 3.478z"></path>
<path fill="#0052b4" d="M16 11.708l1.073 2.434 2.644-0.288-1.571 2.146 1.571 2.146-2.644-0.288-1.073 2.434-1.073-2.434-2.644 0.288 1.571-2.146-1.571-2.146 2.644 0.288z"></path>
</svg>
