<!-- Generated by IcoMoon.io -->
<svg version="1.1" xmlns="http://www.w3.org/2000/svg" width="32" height="32" viewBox="0 0 32 32">
<title>kor</title>
<path fill="#f0f0f0" d="M32 16c0 8.837-7.163 16-16 16s-16-7.163-16-16c0-8.837 7.163-16 16-16s16 7.163 16 16z"></path>
<path fill="#d80027" d="M21.565 16c0 1.391-2.492 4.87-5.565 4.87s-5.565-3.478-5.565-4.87c0-3.074 2.492-5.565 5.565-5.565s5.565 2.492 5.565 5.565z"></path>
<path fill="#0052b4" d="M21.565 16c0 3.074-2.492 5.565-5.565 5.565s-5.565-2.492-5.565-5.565z"></path>
<path fill="#000" d="M21.903 20.919l1.476-1.476 0.984 0.984-1.476 1.476-0.984-0.984z"></path>
<path fill="#000" d="M19.443 23.379l1.476-1.476 0.984 0.984-1.476 1.476-0.984-0.984z"></path>
<path fill="#000" d="M24.854 23.87l1.476-1.476 0.984 0.984-1.476 1.476-0.984-0.984z"></path>
<path fill="#000" d="M22.395 26.33l1.476-1.476 0.984 0.984-1.476 1.476-0.984-0.984z"></path>
<path fill="#000" d="M23.378 22.395l1.476-1.476 0.984 0.984-1.476 1.476-0.984-0.984z"></path>
<path fill="#000" d="M20.919 24.854l1.476-1.476 0.984 0.984-1.476 1.476-0.984-0.984z"></path>
<path fill="#000" d="M24.855 11.081l-3.935-3.935 0.984-0.984 3.935 3.935-0.984 0.984z"></path>
<path fill="#000" d="M20.92 10.097l-1.476-1.476 0.984-0.984 1.476 1.476-0.984 0.984z"></path>
<path fill="#000" d="M23.379 12.557l-1.476-1.476 0.984-0.984 1.476 1.476-0.984 0.984z"></path>
<path fill="#000" d="M23.87 7.146l-1.476-1.476 0.984-0.984 1.476 1.476-0.984 0.984z"></path>
<path fill="#000" d="M26.33 9.606l-1.476-1.476 0.984-0.984 1.476 1.476-0.984 0.984z"></path>
<path fill="#000" d="M5.67 22.395l3.935 3.935-0.984 0.984-3.935-3.935 0.984-0.984z"></path>
<path fill="#000" d="M9.605 23.378l1.476 1.476-0.984 0.984-1.476-1.476 0.984-0.984z"></path>
<path fill="#000" d="M7.146 20.919l1.476 1.476-0.984 0.984-1.476-1.476 0.984-0.984z"></path>
<path fill="#000" d="M8.621 19.443l3.935 3.935-0.984 0.984-3.935-3.935 0.984-0.984z"></path>
<path fill="#000" d="M9.605 5.67l-3.935 3.935-0.984-0.984 3.935-3.935 0.984 0.984z"></path>
<path fill="#000" d="M11.080 7.145l-3.935 3.935-0.984-0.984 3.935-3.935 0.984 0.984z"></path>
<path fill="#000" d="M12.557 8.622l-3.935 3.935-0.984-0.984 3.935-3.935 0.984 0.984z"></path>
</svg>
