<!-- Generated by IcoMoon.io -->
<svg version="1.1" xmlns="http://www.w3.org/2000/svg" width="32" height="32" viewBox="0 0 32 32">
<title>mal</title>
<path fill="#f0f0f0" d="M32 16c0 8.837-7.163 16-16 16s-16-7.163-16-16c0-8.837 7.163-16 16-16s16 7.163 16 16z"></path>
<path fill="#d80027" d="M15.304 16h16.696c0-1.444-0.192-2.843-0.551-4.174h-16.144v4.174z"></path>
<path fill="#d80027" d="M15.304 7.652h14.347c-0.979-1.598-2.232-3.011-3.692-4.174h-10.655v4.174z"></path>
<path fill="#d80027" d="M16 32c3.766 0 7.227-1.302 9.96-3.478h-19.92c2.733 2.177 6.194 3.478 9.96 3.478z"></path>
<path fill="#d80027" d="M2.348 24.348h27.303c0.786-1.283 1.396-2.686 1.797-4.174h-30.898c0.401 1.488 1.011 2.891 1.797 4.174z"></path>
<path fill="#0052b4" d="M16 16c0-8.836 0-9.878 0-16-8.836 0-16 7.163-16 16h16z"></path>
<path fill="#ffda44" d="M10.64 13.696c-2.185 0-3.957-1.771-3.957-3.957s1.771-3.957 3.957-3.957c0.681 0 1.322 0.172 1.882 0.476-0.878-0.859-2.079-1.389-3.404-1.389-2.689 0-4.87 2.18-4.87 4.87s2.18 4.87 4.87 4.87c1.325 0 2.526-0.53 3.404-1.389-0.56 0.303-1.201 0.475-1.882 0.475z"></path>
<path fill="#ffda44" d="M11.755 6.957l0.702 1.469 1.586-0.367-0.71 1.465 1.276 1.012-1.588 0.358 0.004 1.628-1.27-1.019-1.27 1.019 0.004-1.628-1.588-0.358 1.276-1.012-0.71-1.465 1.586 0.367z"></path>
</svg>
