<!-- Generated by IcoMoon.io -->
<svg version="1.1" xmlns="http://www.w3.org/2000/svg" width="32" height="32" viewBox="0 0 32 32">
<title>man</title>
<path fill="#d80027" d="M32 16c0 8.837-7.163 16-16 16s-16-7.163-16-16c0-8.837 7.163-16 16-16s16 7.163 16 16z"></path>
<path fill="#ffda44" d="M8.756 9.738l1.381 4.25h4.469l-3.613 2.631 1.381 4.25-3.619-2.625-3.619 2.625 1.388-4.25-3.619-2.631h4.469z"></path>
<path fill="#ffda44" d="M18.969 24.781l-1.056-1.3-1.563 0.606 0.906-1.406-1.056-1.306 1.619 0.431 0.913-1.406 0.087 1.675 1.625 0.431-1.569 0.6z"></path>
<path fill="#ffda44" d="M21.069 20.969l0.5-1.6-1.369-0.969 1.675-0.025 0.494-1.6 0.544 1.587 1.675-0.019-1.344 1 0.538 1.587-1.369-0.969z"></path>
<path fill="#ffda44" d="M23.9 11.744l-0.738 1.506 1.2 1.169-1.656-0.238-0.738 1.5-0.288-1.65-1.663-0.238 1.488-0.781-0.288-1.656 1.2 1.169z"></path>
<path fill="#ffda44" d="M19.012 7.181l-0.125 1.669 1.556 0.631-1.631 0.4-0.119 1.675-0.881-1.425-1.631 0.4 1.081-1.281-0.887-1.419 1.556 0.631z"></path>
</svg>
