<!-- Generated by IcoMoon.io -->
<svg version="1.1" xmlns="http://www.w3.org/2000/svg" width="32" height="32" viewBox="0 0 32 32">
<title>nep</title>
<path fill="#f0f0f0" d="M32 16c0 8.837-7.163 16-16 16s-16-7.163-16-16c0-8.837 7.163-16 16-16s16 7.163 16 16z"></path>
<path fill="#0052b4" d="M31.906 17.739l-0-0-0 0z"></path>
<path fill="#0052b4" d="M31.906 17.739c0-0 0-0 0-0l-17.547-17.655c-0.792 0.081-1.566 0.219-2.319 0.411-6.921 1.762-12.040 15.506-12.040 15.506s22.4 14.99 24.955 13.26c0.511-0.346 1.002-0.721 1.468-1.122l-10.399-10.399h15.881z"></path>
<path fill="#d80027" d="M27.826 16l-15.561-15.561c-7.035 1.682-12.265 8.010-12.265 15.561 0 8.837 7.163 16 16 16 3.352 0 6.462-1.031 9.033-2.793l-13.207-13.207h16z"></path>
<path fill="#f0f0f0" d="M15.217 23.625l-1.954-0.919 1.041-1.892-2.122 0.406-0.269-2.144-1.478 1.577-1.478-1.577-0.269 2.144-2.122-0.406 1.041 1.893-1.954 0.919 1.954 0.919-1.041 1.893 2.122-0.406 0.269 2.143 1.478-1.577 1.478 1.577 0.269-2.143 2.122 0.406-1.041-1.892z"></path>
<path fill="#f0f0f0" d="M13.913 8.874l-1.421-0.668 0.757-1.376-1.543 0.295-0.196-1.559-1.075 1.147-1.075-1.147-0.196 1.559-1.543-0.295 0.757 1.376-1.421 0.668 3.478 0.696z"></path>
<path fill="#f0f0f0" d="M14.609 8.874c0 2.305-1.869 4.174-4.174 4.174s-4.174-1.869-4.174-4.174z"></path>
</svg>
