<!-- Generated by IcoMoon.io -->
<svg version="1.1" xmlns="http://www.w3.org/2000/svg" width="32" height="32" viewBox="0 0 32 32">
<title>port</title>
<path fill="#6da544" d="M0 16c0 6.879 4.342 12.744 10.435 15.005l1.391-15.005-1.391-15.005c-6.093 2.261-10.435 8.125-10.435 15.005z"></path>
<path fill="#d80027" d="M32 16c0-8.836-7.163-16-16-16-1.957 0-3.832 0.352-5.565 0.995v30.010c1.733 0.643 3.608 0.995 5.565 0.995 8.837 0 16-7.163 16-16z"></path>
<path fill="#ffda44" d="M16 16c0 3.074-2.492 5.565-5.565 5.565s-5.565-2.492-5.565-5.565c0-3.074 2.492-5.565 5.565-5.565s5.565 2.492 5.565 5.565z"></path>
<path fill="#d80027" d="M7.304 13.217v3.478c0 1.729 1.402 3.13 3.13 3.13s3.13-1.401 3.13-3.13v-3.478h-6.261z"></path>
<path fill="#f0f0f0" d="M10.435 17.739c-0.575 0-1.043-0.468-1.043-1.044v-1.391h2.087v1.391c0 0.575-0.468 1.043-1.043 1.043z"></path>
</svg>
