<!-- Generated by IcoMoon.io -->
<svg version="1.1" xmlns="http://www.w3.org/2000/svg" width="32" height="32" viewBox="0 0 32 32">
<title>rom</title>
<path fill="#ffda44" d="M21.565 0.995c-1.733-0.643-3.608-0.995-5.565-0.995s-3.832 0.352-5.565 0.995l-1.391 15.005 1.391 15.005c1.733 0.643 3.608 0.995 5.565 0.995s3.832-0.352 5.565-0.995l1.391-15.005-1.391-15.005z"></path>
<path fill="#d80027" d="M32 16c0-6.879-4.342-12.744-10.435-15.005v30.010c6.093-2.261 10.435-8.125 10.435-15.005z"></path>
<path fill="#0052b4" d="M0 16c0 6.88 4.342 12.744 10.435 15.005l0-30.010c-6.093 2.261-10.435 8.125-10.435 15.005z"></path>
</svg>
