<!-- Generated by IcoMoon.io -->
<svg version="1.1" xmlns="http://www.w3.org/2000/svg" width="32" height="32" viewBox="0 0 32 32">
<title>thai</title>
<path fill="#f0f0f0" d="M32 16c0 8.837-7.163 16-16 16s-16-7.163-16-16c0-8.837 7.163-16 16-16s16 7.163 16 16z"></path>
<path fill="#0052b4" d="M31.005 10.435h-30.010c-0.643 1.733-0.995 3.608-0.995 5.565s0.352 3.832 0.995 5.565h30.010c0.643-1.733 0.995-3.608 0.995-5.565s-0.352-3.832-0.995-5.565z"></path>
<path fill="#d80027" d="M16 0c-4.849 0-9.195 2.158-12.129 5.565h24.258c-2.934-3.407-7.279-5.565-12.129-5.565z"></path>
<path fill="#d80027" d="M28.129 26.435h-24.258c2.934 3.407 7.279 5.565 12.129 5.565s9.195-2.158 12.129-5.565z"></path>
</svg>
