<!-- Generated by IcoMoon.io -->
<svg version="1.1" xmlns="http://www.w3.org/2000/svg" width="32" height="32" viewBox="0 0 32 32">
<title>tur</title>
<path fill="#d80027" d="M32 16c0 8.837-7.163 16-16 16s-16-7.163-16-16c0-8.837 7.163-16 16-16s16 7.163 16 16z"></path>
<path fill="#f0f0f0" d="M15.345 13.074l1.313 1.809 2.126-0.689-1.315 1.808 1.313 1.809-2.125-0.692-1.315 1.808 0.001-2.235-2.125-0.692 2.126-0.689z"></path>
<path fill="#f0f0f0" d="M11.762 20.522c-2.497 0-4.522-2.024-4.522-4.522s2.025-4.522 4.522-4.522c0.779 0 1.511 0.197 2.151 0.543-1.003-0.981-2.376-1.587-3.89-1.587-3.074 0-5.565 2.492-5.565 5.565s2.492 5.565 5.565 5.565c1.514 0 2.887-0.606 3.89-1.587-0.64 0.347-1.372 0.544-2.151 0.544z"></path>
</svg>
