<!-- Generated by IcoMoon.io -->
<svg version="1.1" xmlns="http://www.w3.org/2000/svg" width="1024" height="1024" viewBox="0 0 1024 1024">
<title>alb</title>
<g id="icomoon-ignore">
</g>
<path fill="#f0f0f0" d="M1024 512c0 282.77-229.23 512-512 512s-512-229.23-512-512c0-282.77 229.23-512 512-512s512 229.23 512 512z"></path>
<path fill="#d80027" d="M489.74 512h534.26c0-46.212-6.16-90.98-17.638-133.566h-516.622v133.566z"></path>
<path fill="#d80027" d="M489.74 244.87h459.112c-31.342-51.144-71.416-96.35-118.14-133.566h-340.972v133.566z"></path>
<path fill="#d80027" d="M512 1024c120.498 0 231.252-41.648 318.712-111.304h-637.424c87.46 69.656 198.214 111.304 318.712 111.304z"></path>
<path fill="#d80027" d="M75.148 779.13h873.704c25.162-41.058 44.676-85.938 57.51-133.566h-988.724c12.834 47.628 32.348 92.508 57.51 133.566z"></path>
<path fill="#0052b4" d="M237.168 79.956h46.658l-43.4 31.53 16.578 51.018-43.398-31.53-43.398 31.53 14.32-44.074c-38.212 31.83-71.704 69.122-99.304 110.674h14.95l-27.626 20.070c-4.304 7.18-8.432 14.474-12.388 21.876l13.192 40.602-24.612-17.882c-6.118 12.962-11.714 26.216-16.744 39.746l14.534 44.736h53.644l-43.4 31.53 16.578 51.018-43.398-31.53-25.996 18.888c-2.602 20.916-3.958 42.22-3.958 63.842h512c0-282.768 0-316.104 0-512-101.144 0-195.43 29.34-274.832 79.956zM257.004 460.8l-43.398-31.53-43.398 31.53 16.578-51.018-43.4-31.53h53.644l16.576-51.018 16.576 51.018h53.644l-43.4 31.53 16.578 51.018zM240.426 260.634l16.578 51.018-43.398-31.53-43.398 31.53 16.578-51.018-43.4-31.53h53.644l16.576-51.018 16.576 51.018h53.644l-43.4 31.53zM440.656 460.8l-43.398-31.53-43.398 31.53 16.578-51.018-43.4-31.53h53.644l16.576-51.018 16.576 51.018h53.644l-43.4 31.53 16.578 51.018zM424.078 260.634l16.578 51.018-43.398-31.53-43.398 31.53 16.578-51.018-43.4-31.53h53.644l16.576-51.018 16.576 51.018h53.644l-43.4 31.53zM424.078 111.486l16.578 51.018-43.398-31.53-43.398 31.53 16.578-51.018-43.4-31.53h53.644l16.576-51.018 16.576 51.018h53.644l-43.4 31.53z"></path>
</svg>
