<!-- Generated by IcoMoon.io -->
<svg version="1.1" xmlns="http://www.w3.org/2000/svg" width="1024" height="1024" viewBox="0 0 1024 1024">
<title></title>
<g id="icomoon-ignore">
</g>
<path fill="#000" d="M146.286 0h731.429c80.791 0 146.285 65.494 146.285 146.285v731.429c0 80.791-65.494 146.285-146.285 146.285h-731.429c-80.791 0-146.285-65.494-146.285-146.285v-731.429c0-80.791 65.494-146.285 146.285-146.285z"></path>
<path fill="#6f6eff" d="M146.286 0h731.429c80.791 0 146.285 65.494 146.285 146.285v731.429c0 80.791-65.494 146.285-146.285 146.285h-731.429c-80.791 0-146.285-65.494-146.285-146.285v-731.429c0-80.791 65.494-146.285 146.285-146.285z"></path>
<path fill="#fff" d="M810.514 384.62c-12.673-7.191-26.505-12.214-40.844-15.316 0.377-1.359 0.851-2.789 1.228-4.123 5.048-18.659 20.388-75.339-15.399-122.274-25.944-34.071-65.368-44.492-86.482-50.035-17.565-4.652-40.809-10.014-65.184-10.014-36.638 0-68.007 12.526-91.812 34.634-23.805-22.107-55.174-34.634-91.812-34.634-24.375 0-47.645 5.362-65.087 9.98-21.201 5.614-60.662 16.025-86.604 50.096-35.761 46.934-20.421 103.614-15.373 122.308 0.342 1.3 0.815 2.728 1.192 4.063-14.339 3.127-28.197 8.125-40.931 15.351-70.731 40.395-87.771 128.501-40.528 209.454 30.361 52.115 96.737 82.686 156.022 90.283 10.316 74.126 90.462 156.691 183.061 156.75h0.035c92.599 0 172.772-82.591 183.096-156.75 59.25-7.598 125.66-38.168 156.022-90.248 47.261-81.022 30.231-169.095-40.599-209.525zM547.369 305.996c15.154-55.77 60.478-49.134 101.287-38.289 40.783 10.784 61.572 21.639 46.488 77.445-15.154 55.805-60.511 135.484-101.287 124.665-40.809-10.794-61.607-108.015-46.488-163.821zM375.342 267.681c40.809-10.855 86.14-17.455 101.287 38.289 15.084 55.805-5.679 153.060-46.488 163.821-40.783 10.82-86.105-68.885-101.287-124.665-15.119-55.779 5.679-66.658 46.488-77.445zM390.058 602.166c-32.439 18.477-123.4-2.416-149.248-46.778-25.848-44.31-20.676-85.111 11.789-103.649 32.439-18.477 79.61-7.598 105.458 36.799 25.944 44.274 64.404 95.212 32 113.629zM511.985 763.63c-58.47-0.035-105.87-61.635-105.87-94.995 0-33.386 47.4-25.918 105.87-25.918 58.47 0.061 105.87-7.475 105.87 25.918-0.009 33.325-47.4 94.995-105.87 94.995zM783.16 555.413c-25.848 44.362-116.816 65.23-149.248 46.778-32.368-18.443 6.082-69.353 31.991-113.62 25.848-44.397 73.055-55.25 105.458-36.799 32.465 18.538 37.644 59.339 11.797 103.64z"></path>
</svg>
